<svg width="57" height="56" viewBox="0 0 57 56" fill="none" xmlns="http://www.w3.org/2000/svg">
<g id="Icon">
<ellipse id="Ellipse 290" cx="28.8823" cy="28" rx="28" ry="27.5" fill="#FFE2ED"/>
<path id="Vector" d="M39.8823 19.4323V35.5677C39.8825 35.7119 39.8496 35.8543 39.7864 35.9834C39.7232 36.1126 39.6313 36.2251 39.518 36.312C39.4046 36.3989 39.273 36.4579 39.1334 36.4843C38.9938 36.5107 38.8501 36.5038 38.7136 36.4641L18.5469 30.4919C18.3553 30.4362 18.1867 30.3186 18.0668 30.1568C17.9469 29.9951 17.8821 29.798 17.8823 29.5955V25.4045C17.8821 25.202 17.9469 25.0049 18.0668 24.8432C18.1867 24.6814 18.3553 24.5638 18.5469 24.5081L38.7136 18.5359C38.8501 18.4962 38.9938 18.4893 39.1334 18.5157C39.273 18.5421 39.4046 18.6011 39.518 18.688C39.6313 18.7749 39.7232 18.8874 39.7864 19.0166C39.8496 19.1457 39.8825 19.2881 39.8823 19.4323Z" stroke="#FF80AD" stroke-width="2" stroke-linecap="round" stroke-linejoin="round"/>
<path id="Vector_2" d="M22.8823 32.3766V36.5748C22.8823 36.8202 22.9701 37.0555 23.1264 37.229C23.2827 37.4025 23.4946 37.5 23.7157 37.5H27.049C27.27 37.5 27.482 37.4025 27.6382 37.229C27.7945 37.0555 27.8823 36.8202 27.8823 36.5748V22.5" stroke="#FF80AD" stroke-width="2" stroke-linecap="round" stroke-linejoin="round"/>
</g>
</svg>
