<svg width="57" height="56" viewBox="0 0 57 56" fill="none" xmlns="http://www.w3.org/2000/svg">
<g id="Icon">
<ellipse id="Ellipse 290" cx="28.8823" cy="28" rx="28" ry="27.5" fill="#E4F4E6"/>
<path id="Vector" d="M29.3823 35.5C32.9722 35.5 35.8823 32.5899 35.8823 29C35.8823 25.4101 32.9722 22.5 29.3823 22.5C25.7925 22.5 22.8823 25.4101 22.8823 29C22.8823 32.5899 25.7925 35.5 29.3823 35.5Z" stroke="#2FCF3F" stroke-width="2" stroke-linecap="round" stroke-linejoin="round"/>
<path id="Vector_2" d="M36.0945 20.3556C36.4225 20.6577 36.7333 20.9685 37.0267 21.2878L40.5616 21.7928C41.1376 22.7931 41.5815 23.8638 41.8823 24.9781L39.7329 27.8396C39.7329 27.8396 39.7718 28.7201 39.7329 29.1604L41.8823 32.0219C41.5829 33.1367 41.1389 34.2076 40.5616 35.2072L37.0267 35.7122C37.0267 35.7122 36.4182 36.3466 36.0945 36.6444L35.5895 40.1793C34.5892 40.7552 33.5186 41.1992 32.4042 41.5L29.5427 39.3506C29.1033 39.3895 28.6613 39.3895 28.222 39.3506L25.3604 41.5C24.2456 41.2006 23.1748 40.7566 22.1752 40.1793L21.6702 36.6444C21.3508 36.3423 21.04 36.0315 20.7379 35.7122L17.203 35.2072C16.6271 34.2069 16.1831 33.1362 15.8823 32.0219L18.0317 29.1604C18.0317 29.1604 17.9929 28.2799 18.0317 27.8396L15.8823 24.9781C16.1818 23.8633 16.6258 22.7924 17.203 21.7928L20.7379 21.2878C21.04 20.9685 21.3508 20.6577 21.6702 20.3556L22.1752 16.8207C23.1754 16.2448 24.2461 15.8008 25.3604 15.5L28.222 17.6494C28.6613 17.6105 29.1033 17.6105 29.5427 17.6494L32.4042 15.5C33.519 15.7994 34.5899 16.2434 35.5895 16.8207L36.0945 20.3556Z" stroke="#2FCF3F" stroke-width="2" stroke-linecap="round" stroke-linejoin="round"/>
</g>
</svg>
