<svg width="57" height="56" viewBox="0 0 57 56" fill="none" xmlns="http://www.w3.org/2000/svg">
<g id="Icon">
<ellipse id="Ellipse 290" cx="28.8823" cy="28" rx="28" ry="27.5" fill="#FFF1DB"/>
<path id="Vector" d="M23.8823 39.5H34.8823" stroke="#FFB545" stroke-width="2" stroke-linecap="round" stroke-linejoin="round"/>
<path id="Vector_2" d="M28.8823 35.5V29.5" stroke="#FFB545" stroke-width="2" stroke-linecap="round" stroke-linejoin="round"/>
<path id="Vector_3" d="M24.8823 25.5L28.8823 29.5L32.8823 25.5" stroke="#FFB545" stroke-width="2" stroke-linecap="round" stroke-linejoin="round"/>
<path id="Vector_4" d="M23.3362 31.7505C22.2648 30.9091 21.3969 29.8324 20.7986 28.602C20.2002 27.3717 19.8869 26.0199 19.8824 24.6491C19.8599 19.7179 23.7862 15.6162 28.6688 15.5026C30.5585 15.4573 32.4143 16.0141 33.9731 17.0939C35.5318 18.1737 36.7144 19.7218 37.353 21.5185C37.9917 23.3152 38.054 25.2694 37.5312 27.104C37.0084 28.9385 35.9269 30.5602 34.4402 31.7391C34.1118 31.9955 33.8458 32.3243 33.6625 32.7005C33.4792 33.0766 33.3835 33.4901 33.3827 33.9093V34.591C33.3827 34.8321 33.2879 35.0633 33.1191 35.2338C32.9503 35.4042 32.7214 35.5 32.4827 35.5H25.2825C25.0438 35.5 24.8149 35.4042 24.6461 35.2338C24.4773 35.0633 24.3825 34.8321 24.3825 34.591V33.9093C24.3797 33.4932 24.2842 33.0831 24.1031 32.7094C23.9219 32.3357 23.6599 32.008 23.3362 31.7505V31.7505Z" stroke="#FFB545" stroke-width="2" stroke-linecap="round" stroke-linejoin="round"/>
</g>
</svg>
